<!DOCTYPE svg PUBLIC "-//W3C//DTD SVG 1.1//EN" "http://www.w3.org/Graphics/SVG/1.1/DTD/svg11.dtd">
<!-- Uploaded to: SVG Repo, www.svgrepo.com, Transformed by: SVG Repo Mixer Tools -->
<svg fill="#ffffff" version="1.1" id="Capa_1" xmlns="http://www.w3.org/2000/svg" xmlns:xlink="http://www.w3.org/1999/xlink" width="800px" height="800px" viewBox="0 0 180.242 180.242" xml:space="preserve" stroke="#ffffff">
<g id="SVGRepo_bgCarrier" stroke-width="0"/>
<g id="SVGRepo_tracerCarrier" stroke-linecap="round" stroke-linejoin="round"/>
<g id="SVGRepo_iconCarrier"> <g> <g> <polygon points="116.083,150.846 64.167,150.846 90.12,98.934 "/> <g> <path d="M177.248,101.111H2.99c-1.2,0-2.18-0.973-2.18-2.177s0.98-2.177,2.18-2.177h174.258c1.204,0,2.185,0.973,2.185,2.177 S178.452,101.111,177.248,101.111z"/> </g> <g> <path d="M144.47,20.441c5.145,0,9.319-5.967,9.319-11.117S149.615,0,144.47,0c-5.154,0-9.334,4.175-9.334,9.324 C135.136,14.479,139.316,20.441,144.47,20.441z"/> <path d="M162.726,26.936c-0.075-0.266-0.132-0.533-0.263-0.785c-0.097-0.187-0.219-0.331-0.349-0.493 c-0.164-0.219-0.331-0.438-0.527-0.618c-0.169-0.14-0.361-0.216-0.557-0.329c-0.196-0.112-0.341-0.266-0.564-0.342 c-0.346-0.118-7.741-2.785-14.582-3.127l-0.942,1.872h-0.021l2.49,19.338l-2.951,5.155l-2.955-5.155l2.484-19.338h-0.038 l-0.925-1.872c-6.835,0.348-14.228,3.009-14.577,3.127c-0.22,0.076-0.373,0.235-0.56,0.348c-0.196,0.112-0.383,0.183-0.552,0.323 c-0.209,0.186-0.364,0.411-0.531,0.635c-0.131,0.156-0.263,0.295-0.351,0.47c-0.131,0.252-0.184,0.52-0.268,0.802 c-0.042,0.162-0.135,0.301-0.158,0.481l-2.932,26.542c-0.229,2.03,1.209,3.855,3.24,4.074c0.14,0.017,0.276,0.028,0.425,0.028 c1.839,0,3.441-1.393,3.638-3.272l2.689-24.189c0.326-0.096,0.666-0.197,1.032-0.296v25.168l-2.928,36.49 c-0.196,2.44,1.609,4.575,4.061,4.771c0.109,0.013,0.229,0.013,0.351,0.013c2.283,0,4.213-1.747,4.399-4.072l2.661-32.988 c0.551,0.249,1.136,0.383,1.783,0.383c0.645,0,1.237-0.134,1.783-0.383l2.653,32.988c0.191,2.319,2.119,4.072,4.411,4.072 c0.104,0,0.234,0,0.346-0.013c2.438-0.196,4.263-2.331,4.059-4.771l-2.934-36.49V30.314c0.369,0.099,0.711,0.2,1.042,0.296 l2.68,24.189c0.202,1.879,1.8,3.275,3.644,3.275c0.143,0,0.279-0.007,0.418-0.03c2.036-0.219,3.479-2.038,3.251-4.074 l-2.941-26.542C162.857,27.256,162.769,27.108,162.726,26.936z"/> </g> <polygon points="80.042,180.242 80.047,180.237 80.031,180.237 "/> <path d="M54.126,69.319c0.112-3.026-0.399-6.107-1.529-9.045l4.711-2.925l-4.613-7.368L48,52.912 c-2.15-2.301-4.678-4.102-7.447-5.333l1.244-5.387l-8.465-1.948l-1.256,5.39c-3.021-0.118-6.103,0.385-9.04,1.519l-2.936-4.701 l-7.345,4.599l2.93,4.702c-2.307,2.136-4.118,4.683-5.337,7.463l-5.394-1.25L2.99,66.433l5.39,1.239 c-0.107,3.037,0.391,6.103,1.525,9.048l-4.696,2.925l4.61,7.368l4.702-2.936c2.136,2.315,4.678,4.106,7.441,5.336l-1.231,5.378 l8.454,1.966l1.256-5.402c3.021,0.132,6.096-0.378,9.037-1.516l2.925,4.701l7.364-4.607l-2.942-4.695 c2.309-2.134,4.118-4.684,5.335-7.458l5.385,1.246l1.961-8.475L54.126,69.319z M39.519,81.73 c-7.303,4.56-16.923,2.337-21.497-4.97c-4.562-7.296-2.337-16.93,4.96-21.488c7.324-4.569,16.938-2.35,21.5,4.963 C49.049,67.541,46.819,77.174,39.519,81.73z"/> </g> </g> </g>
</svg>